<?xml version="1.0" standalone="no"?>
<!DOCTYPE svg PUBLIC "-//W3C//DTD SVG 20010904//EN"
 "http://www.w3.org/TR/2001/REC-SVG-20010904/DTD/svg10.dtd">
<svg version="1.0" xmlns="http://www.w3.org/2000/svg"
 width="300.000000pt" height="300.000000pt" viewBox="0 0 300.000000 300.000000"
 preserveAspectRatio="xMidYMid meet">
<metadata>
Created by potrace 1.11, written by Peter Selinger 2001-2013
</metadata>
<g transform="translate(0.000000,300.000000) scale(0.100000,-0.100000)"
fill="#000000" stroke="none">
<path d="M1220 2655 l0 -35 -70 0 -70 0 0 -35 0 -35 -70 0 -70 0 0 -35 c0 -33
-2 -35 -35 -35 l-35 0 0 -210 0 -210 -35 0 -35 0 0 -245 0 -245 -35 0 -35 0 0
-175 0 -175 35 0 c33 0 35 -2 35 -35 0 -33 2 -35 35 -35 l35 0 0 -280 0 -280
35 0 c33 0 35 -2 35 -35 0 -33 2 -35 35 -35 33 0 35 2 35 35 l0 35 70 0 70 0
0 -35 c0 -33 -2 -35 -35 -35 -33 0 -35 -2 -35 -35 0 -33 2 -35 35 -35 33 0 35
-2 35 -35 l0 -35 70 0 70 0 0 -35 0 -35 210 0 210 0 0 35 0 35 70 0 70 0 0 35
c0 33 2 35 35 35 33 0 35 2 35 35 0 33 -2 35 -35 35 -33 0 -35 2 -35 35 0 33
2 35 35 35 33 0 35 2 35 35 0 33 2 35 35 35 l35 0 0 140 0 140 -35 0 c-33 0
-35 2 -35 35 l0 35 70 0 70 0 0 35 c0 33 2 35 35 35 33 0 35 2 35 35 0 33 2
35 35 35 33 0 35 2 35 35 0 33 2 35 35 35 l35 0 0 140 0 140 -35 0 -35 0 0
280 0 280 -35 0 -35 0 0 210 0 210 -35 0 c-33 0 -35 2 -35 35 l0 35 -70 0 -70
0 0 35 0 35 -70 0 -70 0 0 35 0 35 -280 0 -280 0 0 -35z m490 -140 l0 -35 105
0 105 0 0 -35 c0 -33 2 -35 35 -35 l35 0 0 -175 0 -175 35 0 35 0 0 -210 0
-210 35 0 35 0 0 -140 0 -140 35 0 35 0 0 -70 0 -70 -35 0 c-33 0 -35 -2 -35
-35 0 -33 -2 -35 -35 -35 l-35 0 0 210 0 210 -35 0 -35 0 0 245 0 245 -35 0
-35 0 0 105 0 105 -70 0 -70 0 0 -175 0 -175 35 0 35 0 0 -210 0 -210 35 0 35
0 0 -175 0 -175 35 0 c33 0 35 -2 35 -35 l0 -35 -105 0 -105 0 0 -35 0 -35
-280 0 -280 0 0 35 0 35 -105 0 -105 0 0 35 0 35 -70 0 -70 0 0 35 c0 33 -2
35 -35 35 l-35 0 0 70 0 70 35 0 35 0 0 175 0 175 35 0 35 0 0 175 0 175 35 0
35 0 0 175 0 175 35 0 c33 0 35 -2 35 -35 l0 -35 105 0 105 0 0 -35 0 -35 210
0 210 0 0 35 c0 33 2 35 35 35 33 0 35 2 35 35 l0 35 -70 0 -70 0 0 35 0 35
-140 0 -140 0 0 -35 0 -35 -70 0 -70 0 0 35 c0 33 2 35 35 35 33 0 35 2 35 35
l0 35 210 0 210 0 0 -35z m-700 -1540 c0 -33 -2 -35 -35 -35 -33 0 -35 2 -35
35 0 33 2 35 35 35 33 0 35 -2 35 -35z m210 -70 c0 -33 2 -35 35 -35 33 0 35
-2 35 -35 0 -33 -2 -35 -35 -35 -33 0 -35 2 -35 35 0 33 -2 35 -35 35 l-35 0
0 -70 0 -70 35 0 c33 0 35 -2 35 -35 0 -33 2 -35 35 -35 33 0 35 -2 35 -35 0
-33 -2 -35 -35 -35 -33 0 -35 2 -35 35 0 33 -2 35 -35 35 -33 0 -35 2 -35 35
0 33 -2 35 -35 35 l-35 0 0 70 0 70 35 0 c33 0 35 2 35 35 0 33 2 35 35 35 33
0 35 -2 35 -35z m-210 -70 c0 -33 -2 -35 -35 -35 -33 0 -35 2 -35 35 0 33 2
35 35 35 33 0 35 -2 35 -35z m770 0 c0 -33 -2 -35 -35 -35 -33 0 -35 2 -35 35
0 33 2 35 35 35 33 0 35 -2 35 -35z m-350 -70 c0 -33 -2 -35 -35 -35 -33 0
-35 2 -35 35 0 33 2 35 35 35 33 0 35 -2 35 -35z m210 0 c0 -33 -2 -35 -35
-35 -33 0 -35 2 -35 35 0 33 2 35 35 35 33 0 35 -2 35 -35z m-630 -105 l0 -70
-35 0 -35 0 0 70 0 70 35 0 35 0 0 -70z m840 35 c0 -33 -2 -35 -35 -35 -33 0
-35 2 -35 35 0 33 2 35 35 35 33 0 35 -2 35 -35z m-420 -70 c0 -33 -2 -35 -35
-35 -33 0 -35 2 -35 35 0 33 2 35 35 35 33 0 35 -2 35 -35z m140 0 c0 -33 -2
-35 -35 -35 -33 0 -35 2 -35 35 0 33 2 35 35 35 33 0 35 -2 35 -35z m140 0 c0
-33 -2 -35 -35 -35 -33 0 -35 2 -35 35 0 33 2 35 35 35 33 0 35 -2 35 -35z"/>
<path d="M1850 2375 c0 -33 2 -35 35 -35 33 0 35 2 35 35 0 33 -2 35 -35 35
-33 0 -35 -2 -35 -35z"/>
</g>
</svg>
