<svg id="Layer_1" data-name="Layer 1" xmlns="http://www.w3.org/2000/svg" viewBox="0 0 216 216"><defs><style>.cls-1{fill:none;stroke:#a98a5b;stroke-miterlimit:10;stroke-width:4px;}.cls-2{fill:#a98a5b;}</style></defs><title>logo</title><g id="Layer_2" data-name="Layer 2"><g id="logo"><path d="M64.71,93.43c-6.18,0-10.86,4.86-10.86,11.26s4.68,11.37,10.86,11.37c3.31,0,7.14-1.83,9.94-4.68L80.76,118a24,24,0,0,1-16.63,7.43c-12,0-21-8.8-21-20.57,0-11.55,9.2-20.23,21.43-20.23a23,23,0,0,1,16.18,6.85l-6.06,7.26C72,95.49,68.19,93.43,64.71,93.43Z"/><path d="M155.46,117.08c4.85,0,8.2-3.29,8.2-8.74V84h11v24.37c0,11.07-7.43,18.08-19.22,18.08s-19.46-7-19.46-18.08V84h11v24.37C146.9,113.72,150.49,117.08,155.46,117.08Z"/><line class="cls-1" x1="108" y1="159.92" x2="108" y2="56.08"/><path class="cls-2" d="M210,6V210H6V6H210m6-6H0V216H216Z"/></g></g></svg>