<?xml version="1.0" encoding="utf-8"?>
<!-- Generator: Adobe Illustrator 27.7.0, SVG Export Plug-In . SVG Version: 6.00 Build 0)  -->
<svg version="1.1" id="Layer_1" xmlns="http://www.w3.org/2000/svg" xmlns:xlink="http://www.w3.org/1999/xlink" x="0px" y="0px"
	 viewBox="0 0 317 317" style="enable-background:new 0 0 317 317;" xml:space="preserve">
<style type="text/css">
	.st0{display:none;}
	.st1{display:inline;}
	.st2{fill:#0130EA;}
	.st3{fill:#9300FF;}
</style>
<g id="OG" class="st0">
	<g class="st1">
		<path class="st2" d="M289,28v261H28V28H289 M317,0H0v317h317V0L317,0z"/>
	</g>
	<g class="st1">
		<g>
			<path d="M97,125.7c3.4,0.3,7.5,0.6,11.6,1c2.4,0.2,4.8,0.8,7.2,0.9c1.7,0.1,2.6,0.9,2.4,2.4c-0.2,1.6-1.4,1.7-2.9,1.6
				c-6.7-0.8-13.4-1.4-20.3-2.1c0.1,7.3,0.7,14.2,4.5,20.4c0.5,0.8,0.5,2,0.4,3c-0.1,0.4-1.5,0.9-1.8,0.7c-0.7-0.4-1.6-1.3-1.7-2.1
				c-1-5.8-1.8-11.7-2.6-17.5c-0.3-2.1,0.1-4.5-2.4-5.9c-0.6-0.4-0.4-2.3-0.3-3.5s0.7-2.4,0.5-3.4c-1-6.2-2.2-12.3-3.4-18.4
				c-0.1-0.6-0.4-1.3-0.2-1.7c0.5-1,1.2-1.9,1.9-2.8c0.7,0.7,1.8,1.3,1.9,2.1c0.7,3.5,1.1,7.1,1.5,10.6c0.3,3.4,0.5,6.8,0.8,10.7
				c6.6-4.7,12.5-9.4,13.9-17.5c0.5-2.7-0.7-5.1-3.2-5.9C101,97,96.9,96.4,93,95.7c-1.9-0.3-3.9,0.1-5.7-0.2c-0.8-0.1-1.6-1.2-2-2
				c-0.1-0.3,1-1.7,1.6-1.7c6.9-0.2,13.9-0.7,20.2,3c4.9,2.9,6.8,8.4,4,13.4c-2.1,3.8-5.2,7.1-7.9,10.5
				C101.1,121,98.9,123.5,97,125.7z"/>
			<path d="M208.5,112.3c1.4,6,2.7,12,4.1,18c0.1,0.6,0.5,1.4,0.3,2c-0.3,0.8-0.9,1.6-1.4,2.3c-0.8-0.6-2.1-1-2.3-1.7
				c-1.1-3.8-2-7.6-2.8-11.4c-1.1-5.1-2-10.1-3-15.2c-0.3-1.5-0.5-3.5,1.3-3.8c1.1-0.2,2.8,0.8,3.6,1.8c3.2,4.2,6,8.6,9.1,12.9
				c2.8,3.9,5.9,7.4,10.6,9.6c0.2-1.1,0.5-1.9,0.6-2.8c0.5-9-0.2-17.9-3.3-26.4c-1.4-3.8-3.5-7.3-5.2-10.9c-0.2-0.4-0.8-0.9-0.8-1.2
				c0.2-1.1,0.6-2.1,0.9-3.2c0.9,0.4,2.5,0.6,2.8,1.3c1.5,3.5,2.9,7.1,3.9,10.8c1.5,5.2,2.9,10.4,3.8,15.7
				c0.9,5.1,1.7,10.4,1.7,15.6c0,5.3-3.6,7.1-7.8,3.9c-2.7-2-4.8-4.8-7.1-7.4c-2.9-3.3-5.6-6.8-8.5-10.2
				C208.8,112.2,208.6,112.3,208.5,112.3z"/>
			<path d="M60.5,124.4c-2.3,0.6-4.1,1.3-5.8,1.5c-0.9,0.1-1.9-0.8-2.9-1.2c0.6-0.9,1-2.1,1.9-2.5c2-0.9,4.1-1.3,6.2-2.1
				c0.6-0.2,1.4-1,1.5-1.6c0.8-4.8,1.5-9.7,2-14.6c0.4-3.2,1.6-5.3,3.8-5.4c1.9-0.2,4.3,2.3,5.1,4.8c1.1,3.8,2.3,7.6,3.5,11.3
				c0.2,0.1,0.3,0.2,0.4,0.2c1.1,0,2.2-0.1,3.2-0.1c-0.9,0.7-2,1.3-2.7,2.2c-0.3,0.4-0.2,1.4,0.1,2.1c2.2,6.5,4.4,12.9,6.7,19.4
				c0.5,1.5,1.4,3.1-0.7,3.8c-2.2,0.8-3.1-1.2-3.5-2.7c-1.2-4.1-2.1-8.4-3.2-12.5c-0.7-2.7-1.4-5.5-2.2-8.6c-3.6,1.7-7,3.3-10.3,5
				c-0.5,0.2-0.8,1.2-0.8,1.9c-0.2,4.2-0.2,8.4-0.5,12.5c-0.2,3.5-0.5,6.9-1,10.4c-0.1,0.8-1.3,1.4-2,2.1c-0.6-0.8-1.8-1.5-1.8-2.2
				c0.2-3.7,0.7-7.4,1.2-11.1C59.2,132.9,59.8,128.9,60.5,124.4z M73,116.3c-1.9-4.5-3.6-8.5-5.3-12.7c-2.7,4.1-4.7,11.7-4.1,15.8
				C66.6,118.4,69.5,117.4,73,116.3z"/>
			<path d="M244.6,115.8c7.6-0.9,15-1.7,22.4-2.7c2.1-0.3,4.1-1.2,6.2-1.3c0.9-0.1,2.5,0.8,2.7,1.6c0.5,1.5-0.7,2.4-2.2,2.5
				c-2.6,0.2-5.3,0.1-7.9,0.5c-7,1.1-13.9,2.4-21.2,3.7c0,0.6-0.1,1.4-0.1,2.3c-0.1,2.3,0.9,3.5,3.3,3.3c6.9-0.4,13.9-0.2,20.7-1.1
				c10.5-1.4,20.8-3.6,31.2-5.4c1.1-0.2,2.2-0.9,3.3-0.9c0.9,0,1.8,0.8,2.6,1.3c-0.5,0.9-0.8,2.2-1.5,2.5c-1.5,0.6-3.2,0.8-4.9,1
				c-7.8,1-15.7,1.9-23.6,3c-9,1.3-18,3-27.1,3.9c-6.1,0.6-8.3-1.7-8.1-7.9c0.2-5,0.9-10,1.5-14.9c0.1-0.6,0.7-1.2,1-1.8
				c0.3,0.7,0.9,1.3,1,2C244.3,110.1,244.4,112.8,244.6,115.8z"/>
			<path d="M34.1,73c-2.5,3-5,5.2-6.6,8c-5.6,9.2-8.2,19.5-9.9,30c-1.4,8.7-3.1,17.4-2.6,26.3c0.2,3.6,0.8,7.3,1.6,10.8
				c0.6,2.7,2.6,3.9,5.1,2.7c4.1-2.1,8.5-4.2,11.8-7.3c5.1-4.7,9.4-10.2,14-15.3c0.3-0.3,0.5-0.6,0.8-0.9c0.1-0.1,0.3,0,0.6-0.1
				c0.1,0.3,0.3,0.7,0.2,0.8c-5.9,6.7-11.7,13.5-17.8,19.9c-2,2.1-4.7,3.7-7.4,5c-4.9,2.3-9.4-0.3-9.7-5.8
				c-0.3-5.7-0.4-11.6,0.1-17.3c1.4-15.2,3.4-30.3,8.4-44.8c1.4-4.1,3.6-8,5.7-11.9c1.4-2.6,3.9-4.1,6.9-3.5s4.1,3.2,4.7,6
				c1.2,5.5,2.6,11,3.8,16.5c0.2,0.8,0.5,1.7,0.3,2.5c-0.3,1-1,2-1.5,3c-0.8-0.8-2-1.5-2.2-2.4c-0.7-2.9-1-5.9-1.7-8.8
				c-0.8-3.6-1.8-7.1-2.8-10.6C35.7,75.2,35.1,74.5,34.1,73z"/>
			<path d="M129.2,110.2c-1.4,0.1-2.5,0.4-3.4,0.2c-0.7-0.2-1.6-1.1-1.7-1.7c0-0.7,0.7-1.7,1.4-2c1.1-0.5,2.5-0.4,3.7-0.6
				c0.5-0.1,1.3-0.1,1.6-0.5c1.5-1.7,2.7-1.6,4,0.2c0.4,0.5,1.3,0.7,2,0.9c5.4,1.7,9.2,7.1,5.4,14.2c-1.1,2.1-1.5,4.5-2.8,6.4
				c-2.4,3.7-5,7.3-7.9,10.6c-2.3,2.7-4.9,2.9-7.2,1.5c-1.9-1.1-2.6-3.5-1.7-6.8C124.7,125.3,126.9,117.9,129.2,110.2z M126.4,136.4
				c3.8-1.9,6.6-4.4,8.7-7.7c1.7-2.6,3.1-5.3,4.3-8.1c1.8-4.2,0.1-8.3-3.7-9.8c-1.6-0.6-2.3-0.3-3,1.4c-1.6,4.3-3.7,8.5-5.1,12.9
				C126.5,128.6,125.6,132.3,126.4,136.4z"/>
			<path d="M153.8,136.2c0.8,0,1.4,0.1,2,0c8.9-2.1,17.8-4.3,26.6-6.5c1.3-0.3,2.6-1.1,3.9-1.8c1.3-0.7,2.7-0.9,3.4,0.7
				c0.8,1.7-0.3,2.7-1.8,3.2c-2.8,0.8-5.6,1.5-8.5,2.2c-2.7,0.7-5.5,1.5-8.2,2.3c-5.2,1.4-10.4,2.9-15.6,4.1
				c-4.6,1.1-7.2-1.3-5.8-5.7c3.3-10.4,4-21.1,4.4-31.8c0-0.3-0.1-0.8,0.1-1c0.6-0.8,1.3-1.5,1.9-2.2c0.7,0.8,1.9,1.7,1.9,2.4
				c-0.5,5-1.2,10-1.9,15c-0.7,4.8-1.4,9.6-2,14.4C153.9,133,153.9,134.5,153.8,136.2z"/>
			<path d="M189.4,103.6c-0.1-1.2-0.4-2.5-0.2-3.7c0.1-0.8,1-1.6,1.5-2.4c0.8,0.6,2.1,1.1,2.3,1.8c0.5,1.9,0.7,4,0.5,6
				c-0.6,7.4-0.6,14.8,1.1,22.1c0.4,1.8,1.3,3.4,1.8,5.2c0.3,1,0.2,2.2,0,3.2c-0.1,0.4-1.7,0.8-1.9,0.6c-0.7-0.8-1.5-1.8-1.6-2.8
				c-1.1-8.1-2.2-16.2-3.2-24.3C189.4,107.4,189.5,105.5,189.4,103.6L189.4,103.6z"/>
			<path d="M279.3,80.2c-0.6,0.6-1.1,1.4-1.8,1.6c-4,1.7-8,3.3-12.1,4.8c-5.3,1.9-10.6,3.8-16,5.4c-0.9,0.3-2.1-0.6-3.2-0.9
				c0.6-0.9,1.1-2.3,1.9-2.5c4.4-1.3,9-2.2,13.5-3.5c5-1.5,10-3.2,15-4.8c0.7-0.2,1.3-0.6,2-0.9C278.8,79.7,279,80,279.3,80.2z"/>
		</g>
	</g>
	<g class="st1">
		<path d="M258.3,218.5c2.2-0.6,4.5-1.1,6.7-1.7c0.6-0.1,1.1-0.7,1.6-0.6c1,0.2,1.9,0.6,2.9,1c-0.4,0.9-0.7,2-1.3,2.7
			c-0.5,0.5-1.5,0.6-2.3,0.7c-6.4,0.9-12.9,1.3-19.2,2.7c-5.6,1.2-11,3.5-16.5,5.2c-1.9,0.6-3.9,1.1-5.9,1.5c-2.9,0.6-4.5-1-4.3-3.9
			c0.4-4.6,1-9.2,1.1-13.8c0.1-4.7-0.2-9.4-0.3-14.1c0-0.5,0-1,0-1.5c-0.2-6-0.4-12-0.8-17.9c-0.4-5.2-1.1-10.3-1.7-15.5
			c-0.1-1.2-0.1-2.4,0-3.5c0.2-1.6,1.2-2.5,2.8-2.3c1.5,0.2,2.4,1,2.4,2.7c-0.1,5.1-0.2,10.3-0.1,15.4c0.1,7.6,0.3,15.1,0.7,22.7
			c0.4,8.4,0.9,16.8,1.4,25.1c0,0.2,0.1,0.5,0.2,0.7c8.9-1.5,17.7-3,27.1-4.7c-4-1.6-3.1-4.5-3-7.6c0.5-8.1,0.8-16.3,0.7-24.4
			c-0.1-6.7-0.6-13.4-1.2-20.2c-0.4-4.6-1.1-9.2-1.6-13.7c-0.2-1.7,0.2-3.4,2.3-3.6c2.1-0.2,2.9,1.2,2.9,3
			c-0.1,6.6-0.4,13.2-0.4,19.9c0,8.6,0.2,17.3,0.5,25.9c0.2,4.9,0.8,9.8,1.2,14.9c6.5-3,12.4-5.7,18.4-8.4c1.1-0.5,2.3-1,3.6-1.2
			c5.5-1.2,11-2.4,16.5-3.6c3.1-0.7,6.2-1.7,9.3-2.2c1-0.2,2.5,0.3,3.2,1c0.4,0.3-0.2,1.9-0.6,2.8c-0.2,0.4-1,0.7-1.4,0.7
			c-7.6-1.2-14.8,0.8-22,2.8c-8.6,2.4-15.6,7.6-23.2,12C258.1,217.9,258.2,218.2,258.3,218.5z"/>
		<path d="M79.1,183.5c-0.7,0.6-1.4,1.3-2.3,2.1c1,2.4,1.9,5.1,3.2,7.7c3.5,7.3,7.1,14.4,10.7,21.7c1.6,3.2,3.1,6.3,4.5,9.6
			c0.9,2-0.8,4.4-3.7,5.2c-4,1-8.1,1.6-12.1,2.6c-5.8,1.5-11.6,3.3-17.4,4.9c-1.1,0.3-2.1,0.5-3.2,0.8c-6,1.8-11.9,3.7-17.9,5.4
			c-4.5,1.3-9,2.6-13.6,3.4c-5.3,1-9.2-3.6-8.6-9.4c0.5-5.1,0.6-10.2,0.9-15.3c0.2-4.6,0.6-9.2,0.6-13.9c0.1-8.6,0.1-17.3-0.2-25.9
			c-0.2-4.6-1.1-9.2-1.6-13.7c-0.1-0.8-0.1-1.5-0.1-2.3c0.1-2,0.9-3.5,3.2-3.4c2.5,0.1,2.1,2,2.1,3.5c-0.1,4.7-0.3,9.4-0.4,14.1
			c-0.2,9-0.4,17.9-0.7,26.9c-0.1,4.4-0.4,8.7-0.3,13.1c0.2,6,0.6,11.9,1,17.8c0.2,2.8,1.8,3.8,5.3,3.4c2.4-0.2,4.9-0.4,7.2-1
			c7.8-1.8,15.5-3.8,23.2-5.8c4.3-1.1,8.6-2.3,12.8-3.7c5.9-2,11.8-4.1,17.8-6.2c-5.2-13.3-10.2-26.2-15.3-39.3
			c-8.5,3.6-16.8,6.9-24.1,12.2c-0.9,0.6-2.7,0.4-3.8,0c-0.4-0.1-0.6-2.5-0.1-3c0.8-0.9,2.8-1.8,3.5-1.4c2.1,1.2,3.5-0.1,5.2-0.7
			c1.3-0.4,2.4-1.2,3.6-1.7c5.1-2.1,10.1-4.1,15.7-6.3c-1.3-3.5-2.6-6.9-3.9-10.3c-0.1-0.3-0.3-0.6-0.4-0.9
			c-1.5-4.8-3.2-9.6-4.5-14.5c-0.3-1.2,0.6-2.7,1.2-4c0.1-0.3,1.8-0.4,2-0.1c0.6,1.1,1.1,2.4,1.4,3.7c0.5,3,0.7,6,1.4,8.9
			c1.4,5.5,3,11,4.6,16.5C77.4,184,78.3,183.8,79.1,183.5C79.2,183.6,79.1,183.5,79.1,183.5z"/>
		<path d="M151.4,215.3c-1.1,0.1-1.6,0.3-1.9,0.1c-1-0.6-2.6-1.4-2.6-2.1c0-1,1.1-2.7,2-2.9c2.3-0.6,3.2-1.7,3.3-4
			c0.2-7,0.5-14.1,0.8-21.1c0.1-1.4,0.1-2.9,0.6-4.2c0.3-0.8,1.8-2,2.2-1.9c1.1,0.5,2,1.5,2.7,2.5c0.3,0.5,0,1.5-0.1,2.2
			c-0.7,4.6-1.5,9.3-2.3,13.9c-0.6,3.6-1.1,7.2-1.8,11.6c6-2.2,11.4-4.3,16.9-6.3c1-0.4,2.4-0.6,3.2-0.1c0.6,0.4,1.1,2,0.8,2.8
			c-0.3,0.7-1.5,1.2-2.5,1.5c-6,2.1-12.2,3.8-18,6.3c-1.3,0.6-1.9,3.5-2.3,5.5c-0.6,3-1,6-1.1,9c-0.2,3.3,0,6.6,0,10.5
			c2-0.6,4.1-1.1,6.1-1.9c3-1.3,5.9-2.8,8.8-4.3c5.8-2.9,11.5-5.9,17.3-8.7c3-1.4,6-2.8,9.1-3.8c7.7-2.6,15.4-5.1,23.1-7.6
			c0.5-0.2,1-0.4,1.5-0.3c0.8,0.2,2.3,0.7,2.3,0.9c-0.1,1-0.4,2.6-1.1,2.9c-1.8,0.8-3.8,1.2-5.8,1.6c-5.3,1.1-10.7,1.6-15.8,3.2
			c-5.5,1.8-10.7,4.4-15.8,7.1c-7.6,4-14.9,8.5-22.3,12.8c-1.7,1-3.3,2.5-5.1,2.9s-4.2,0.3-5.7-0.6c-1.9-1.2-1.7-3.7-1.2-6
			C148.3,230,149.7,222.9,151.4,215.3z"/>
		<path d="M79.2,183.6c0.3-0.3,0.5-0.7,0.9-0.8c6.4-1.9,12.7-3.9,19.1-5.5c4.9-1.3,10-2.2,15-3.3c0.2-0.1,0.5-0.1,0.8-0.1
			c6.9-0.6,13.8-1.2,20.5,0.9c7.8,2.5,12.1,7.7,9.5,16.9c-1.9,6.4-5.3,11.9-9,17.4c-4.1,6.2-8.2,12.5-12.6,18.5
			c-1.9,2.6-4.1,5-6.5,7.2c-2.4,2.1-6,0.9-6.9-2.2c-0.6-2-0.9-4.1-1.1-6.2c-0.3-5.1-0.3-10.3-0.8-15.4c-0.5-5.4-1.5-10.8-2.3-16.2
			c-0.3-2.2-0.6-4.3-0.9-6.5c-0.4-2.3-0.9-4.6-1.1-6.9c-0.1-1.4,0.5-2.8,0.8-4.4c-3,0.7-6.4,1.3-9.8,2.2c-4.4,1.2-8.8,2.6-13.2,3.9
			C80.8,183.4,80,183.4,79.2,183.6C79.1,183.5,79.2,183.6,79.2,183.6z M113.8,230.7c2-1.7,3.5-2.7,4.7-4c4.8-5.6,9.6-11.3,14.1-17.1
			c4.4-5.6,7.3-11.9,9.4-18.8c2-6.5-3.1-11.8-7.4-13.3c-6.5-2.2-13.3-2.4-20.2-2.1c-2.4,0.1-4.8,0.9-6.6,1.3
			c0.5,2.2,1.2,4.3,1.4,6.4c0.4,4.3,0.3,8.7,0.7,13.1c0.7,8.6,1.6,17.2,2.5,25.7C112.6,224.7,113.2,227.3,113.8,230.7z"/>
		<path d="M171.2,175c5-0.5,10.1-0.7,15-1.5c3.4-0.6,6.6-2.2,9.9-3.3c1.6-0.5,3.2-0.6,4,1.3c0.7,1.8-0.7,2.4-2,2.8
			c-2,0.6-4.1,0.9-6.1,1.3c-5.2,1-10.4,2-15.6,2.9c-3.2,0.6-6.4,1.3-9.6,1.7c-1.4,0.2-3.4,0.8-3.9-1.5s1.3-3,2.9-3.4
			c1.8-0.4,3.7-0.4,5.5-0.5C171.2,174.9,171.2,175,171.2,175z"/>
	</g>
</g>
<g id="Cutout">
	<g>
		<path class="st3" d="M87.3,95.5c1.8,0.3,3.8-0.1,5.7,0.2c3.9,0.7,8,1.3,11.8,2.6c2.5,0.8,3.7,3.2,3.2,5.9
			c-1.4,8.1-7.3,12.8-13.9,17.5c-0.3-3.9-0.5-7.3-0.8-10.7c-0.4-3.5-0.8-7.1-1.5-10.6c-0.1-0.8-0.9-2.2-1.9-2.1
			c-1.1,0.1-1.4,1.8-1.9,2.8c-0.2,0.4,0.1,1.1,0.2,1.7c1.2,6.1,2.4,12.2,3.4,18.4c0.2,1-0.4,2.2-0.5,3.4c-0.1,1.2-0.3,3.1,0.3,3.5
			c2.4,1.5,2.1,3.8,2.4,5.9c0.8,5.8,1.6,11.7,2.6,17.5c2.5,4.7,3.6-0.8,3.1-1.6c-3.8-6.2-4.4-13.1-4.5-20.4
			c6.9,0.7,13.6,1.3,20.3,2.1c1.5,0.1,2.7,0,2.9-1.6c0.2-1.5-0.7-2.3-2.4-2.4c-2.4-0.1-4.8-0.7-7.2-0.9c-4.1-0.4-8.2-0.7-11.6-1
			c1.9-2.2,4.1-4.7,6.2-7c2.7-3.4,5.8-6.7,7.9-10.5c2.8-5,0.9-10.5-4-13.4c-6.3-3.7-13.3-3.2-20.2-3c-0.6,0-1.7,1.4-1.6,1.7
			C85.6,94.3,86.5,95.4,87.3,95.5z"/>
		<path class="st3" d="M226.9,94.4c-1-3.7-2.4-7.3-3.9-10.8c-0.3-0.7-1.9-1.7-2.8-1.3c-1,0.5-0.3,4-0.1,4.4
			c1.7,3.6,3.8,7.1,5.2,10.9c3.1,8.5,3.8,17.4,3.3,26.4c-0.1,0.9-0.4,1.7-0.6,2.8c-4.7-2.2-7.8-5.7-10.6-9.6
			c-3.1-4.3-5.9-8.7-9.1-12.9c-0.8-1-2.5-2-3.6-1.8c-1.8,0.3-1.6,2.3-1.3,3.8c1,5.1,1.9,10.1,3,15.2c0.8,3.8,1.7,7.6,2.8,11.4
			c0.2,0.7,1.3,1.9,2.3,1.7c0.9-0.1,1.1-1.5,1.4-2.3c0.2-0.6-0.2-1.4-0.3-2c-1.4-6-2.7-12-4.1-18c0.1,0,0.3-0.1,0.5-0.3
			c2.9,3.4,5.6,6.9,8.5,10.2c2.3,2.6,4.4,5.4,7.1,7.4c4.2,3.2,7.8,1.4,7.8-3.9c0-5.2-0.8-10.5-1.7-15.6
			C229.8,104.8,228.4,99.6,226.9,94.4z"/>
		<path class="st3" d="M82.8,142.2c2.1-0.7,1.2-2.3,0.7-3.8c-2.3-6.5-4.5-12.9-6.7-19.4c-0.3-0.7-0.4-1.7-0.1-2.1
			c0.7-0.9,3.1-1.1,2.7-2.2c-0.3-0.9-2.1,0.1-3.2,0.1c-0.1,0-0.2-0.1-0.4-0.2c-1.2-3.7-2.4-7.5-3.5-11.3c-0.8-2.5-3.2-5-5.1-4.8
			c-2.2,0.1-3.4,2.2-3.8,5.4c-0.5,4.9-1.2,9.8-2,14.6c-0.1,0.6-0.9,1.4-1.5,1.6c-2.1,0.8-4.2,1.2-6.2,2.1c-0.9,0.4-2.2,1.5-1.9,2.5
			s2,1.3,2.9,1.2c1.7-0.2,3.5-0.9,5.8-1.5c-0.7,4.5-1.3,8.5-1.8,12.6c-0.5,3.7-1,7.4-1.2,11.1c0,0.7,0.8,2.1,1.8,2.2
			c1,0.1,1.9-1.3,2-2.1c0.5-3.5,0.8-6.9,1-10.4c0.3-4.1,0.3-8.3,0.5-12.5c0-0.7,0.3-1.7,0.8-1.9c3.3-1.7,6.7-3.3,10.3-5
			c0.8,3.1,1.5,5.9,2.2,8.6c1.1,4.1,2,8.4,3.2,12.5C79.7,141,80.6,143,82.8,142.2z M63.6,119.4c-0.6-4.1-0.8-16.3,4.1-15.8
			c4.5,0.4,3.4,8.2,5.3,12.7C69.5,117.4,66.6,118.4,63.6,119.4z"/>
		<path class="st3" d="M247.8,125.7c-2.4,0.2-3.4-1-3.3-3.3c0-0.9,0.1-1.7,0.1-2.3c7.3-1.3,14.2-2.6,21.2-3.7
			c2.6-0.4,5.3-0.3,7.9-0.5c1.5-0.1,2.7-1,2.2-2.5c-0.2-0.8-1.8-1.7-2.7-1.6c-2.1,0.1-4.1,1-6.2,1.3c-7.4,1-14.8,1.8-22.4,2.7
			c-0.2-3-0.3-5.7-0.7-8.4c-0.1-0.7-0.2-2-1-2c-0.7,0-0.9,1.2-1,1.8c-0.6,4.9-1.3,9.9-1.5,14.9c-0.2,6.2,2,8.5,8.1,7.9
			c9.1-0.9,18.1-2.6,27.1-3.9c4.5-0.6,8.9-1.2,13.4-1.7v-3.2c-6.8,1.3-13.6,2.5-20.5,3.5C261.7,125.5,254.7,125.3,247.8,125.7z"/>
		<path class="st3" d="M49.3,127.2c0.6-0.6,0.7-1.7-1.8,1c-4.6,5.1-8.9,10.6-14,15.3c-1.6,1.5-3.5,2.8-5.5,4v3.1
			c1.2-0.8,2.3-1.7,3.3-2.7C37.4,141.5,43.2,133.8,49.3,127.2z"/>
		<path class="st3" d="M34.1,73c1.8,0.1,3.8,9.8,4.6,13.4c0.7,2.9,1,5.9,1.7,8.8c0.2,0.9,1.1,2.6,2.2,2.4c1.1-0.2,2.4-2.8,1.2-5.5
			c-2.3-5.1-2.6-11-3.8-16.5c-0.6-2.8-1.7-5.4-4.7-6s-5.5,0.9-6.9,3.5c-0.1,0.2-0.3,0.5-0.4,0.7v6.4C29.6,77.8,30.6,72.8,34.1,73z"
			/>
		<path class="st3" d="M124.3,139.4c2.3,1.4,4.9,1.2,7.2-1.5c2.9-3.3,5.5-6.9,7.9-10.6c1.3-1.9,1.7-4.3,2.8-6.4
			c3.8-7.1,0-12.5-5.4-14.2c-0.7-0.2-1.6-0.4-2-0.9c-1.3-1.8-2.5-1.9-4-0.2c-0.3,0.4-1.1,0.4-1.6,0.5c-1.2,0.2-2.6,0.1-3.7,0.6
			c-0.7,0.3-1.4,1.3-1.4,2c0.1,0.6,1,1.5,1.7,1.7c0.9,0.2,2-0.1,3.4-0.2c-2.3,7.7-4.5,15.1-6.6,22.4
			C121.7,135.9,122.4,138.3,124.3,139.4z M127.6,125.1c1.4-4.4,3.5-8.6,5.1-12.9c0.7-1.7,1.4-2,3-1.4c3.8,1.5,5.5,5.6,3.7,9.8
			c-1.2,2.8-2.6,5.5-4.3,8.1c-2.1,3.3-4.9,5.8-8.7,7.7C125.6,132.3,126.5,128.6,127.6,125.1z"/>
		<path class="st3" d="M155.6,140.4c5.2-1.2,10.4-2.7,15.6-4.1c2.7-0.8,5.5-1.6,8.2-2.3c2.9-0.7,5.7-1.4,8.5-2.2
			c1.5-0.5,2.6-1.5,1.8-3.2c-0.7-1.6-2.1-1.4-3.4-0.7c-1.3,0.7-2.6,1.5-3.9,1.8c-8.8,2.2-17.7,4.4-26.6,6.5c-0.6,0.1-1.2,0-2,0
			c0.1-1.7,0.1-3.2,0.4-4.7c0.6-4.8,1.3-9.6,2-14.4c0.7-5,1.4-10,1.9-15c0-0.7-0.8-2.4-1.9-2.4c-0.9,0-1.2,1.4-1.9,2.2
			c-0.2,0.2-0.1,0.7-0.1,1c-0.4,10.7-1.1,21.4-4.4,31.8C148.4,139.1,151,141.5,155.6,140.4z"/>
		<path class="st3" d="M189.7,109.3c1,8.1,2.1,16.2,3.2,24.3c0.1,1,0.9,2,1.6,2.8c0.2,0.2,1.8-0.2,1.9-0.6c0.2-1,0.3-2.2,0-3.2
			c-0.5-1.8-1.4-3.4-1.8-5.2c-1.7-7.3-1.7-14.7-1.1-22.1c0.2-2,0-4.1-0.5-6c-0.2-0.7-1.3-2-2.3-1.8c-0.9,0.2-1.4,1.6-1.5,2.4
			c-0.2,1.2,0.1,2.5,0.2,3.7C189.5,105.5,189.4,107.4,189.7,109.3z"/>
		<path class="st3" d="M249.4,92c5.4-1.6,10.7-3.5,16-5.4c4.1-1.5,8.1-3.1,12.1-4.8c0.7-0.2,1.9-0.8,1.8-1.6c0-0.4-0.4-0.7-0.7-0.8
			c-0.7-0.2-1.3,0.7-2,0.9c-5,1.6-10,3.3-15,4.8c-4.5,1.3-9.1,2.2-13.5,3.5c-0.8,0.2-2.3,1.5-1.9,2.5
			C246.6,92.2,248.5,92.3,249.4,92z"/>
		<path class="st3" d="M272.6,205.2c-6,2.7-11.9,5.4-18.4,8.4c-0.4-5.1-1-10-1.2-14.9c-0.3-8.6-0.5-17.3-0.5-25.9
			c0-6.7,0.3-13.3,0.4-19.9c0-1.8-0.8-3.2-2.9-3c-2.1,0.2-2.5,1.9-2.3,3.6c0.5,4.5,1.2,9.1,1.6,13.7c0.6,6.8,1.1,13.5,1.2,20.2
			c0.1,8.1-0.2,16.3-0.7,24.4c-0.1,3.1-1,6,3,7.6c-9.4,1.7-18.2,3.2-27.1,4.7c-0.1-0.2-0.2-0.5-0.2-0.7c-0.5-8.3-1-16.7-1.4-25.1
			c-0.4-7.6-0.6-15.1-0.7-22.7c-0.1-5.1,0-10.3,0.1-15.4c0-1.7-0.9-2.5-2.4-2.7c-1.6-0.2-2.6,0.7-2.8,2.3c-0.1,1.1-0.1,2.3,0,3.5
			c0.6,5.2,1.3,10.3,1.7,15.5c0.4,5.9,0.6,11.9,0.8,17.9c0,0.5,0,1,0,1.5c0.1,4.7,0.4,9.4,0.3,14.1c-0.1,4.6-0.7,9.2-1.1,13.8
			c-0.2,2.9,1.4,4.5,4.3,3.9c2-0.4,4-0.9,5.9-1.5c5.5-1.7,10.9-4,16.5-5.2c6.3-1.4,12.8-1.8,19.2-2.7c0.8-0.1,4.1-0.7,3.6-3.4
			c-0.2-1.1-3.9-0.5-4.5-0.4c-2.2,0.6-4.8,1.4-6.7,1.7c-4.2,0.8-3.7,0.8-1.1-1.1c5.8-4.2,15.4-9.5,24-11.9c2.6-0.7,5.2-1.4,7.8-2
			v-2.3c-4.3,0.9-8.5,1.9-12.8,2.8C274.9,204.2,273.7,204.7,272.6,205.2z"/>
		<path class="st3" d="M215.7,212.3c-7.7,2.5-15.4,5-23.1,7.6c-3.1,1-6.1,2.4-9.1,3.8c-5.8,2.8-11.5,5.8-17.3,8.7
			c-2.9,1.5-5.8,3-8.8,4.3c-2,0.8-4.1,1.3-6.1,1.9c0-3.9-0.2-7.2,0-10.5c0.1-3,0.5-6,1.1-9c0.4-2,1-4.9,2.3-5.5
			c5.8-2.5,12-4.2,18-6.3c1-0.3,2.2-0.8,2.5-1.5c0.3-0.8-0.2-2.4-0.8-2.8c-0.8-0.5-2.2-0.3-3.2,0.1c-5.5,2-10.9,4.1-16.9,6.3
			c0.7-4.4,1.5-8,1.8-11.6c0.8-11.4,4.6-19.8-0.3-18.6c-0.4-0.1-1.9,1.1-2.2,1.9c-0.5,1.3-0.5,2.8-0.6,4.2c-0.3,7-0.6,14.1-0.8,21.1
			c-0.1,2.3-1,3.4-3.3,4c-0.9,0.2-2,1.9-2,2.9c0,0.7,1.4,3.6,4.5,2c-1.7,7.6-3.1,14.7-4.7,21.5c-0.5,2.3-0.7,4.8,1.2,6
			c1.5,0.9,3.9,1,5.7,0.6s3.4-1.9,5.1-2.9c7.4-4.3,14.7-8.8,22.3-12.8c5.1-2.7,10.3-5.3,15.8-7.1c5.1-1.6,10.5-2.1,15.8-3.2
			c2-0.4,4-0.8,5.8-1.6c0.7-0.3,1.1-1.9,1.1-2.9C219.5,211.4,216.2,212.1,215.7,212.3z"/>
		<path class="st3" d="M76,184.2c-1.6-5.5-3.2-11-4.6-16.5c-0.7-2.9-0.9-5.9-1.4-8.9c-0.3-1.3-0.2-3.4-1.4-3.7
			c-3.4-0.9-3.5,2.9-3.2,4.1c1.3,4.9,3,9.7,4.5,14.5c0.1,0.3,0.3,0.6,0.4,0.9c1.3,3.4,2.6,6.8,3.9,10.3c-5.6,2.2-10.6,4.2-15.7,6.3
			c-1.2,0.5-2.3,1.3-3.6,1.7c-1.7,0.6-2.8,0.8-5.2,0.7c-4.8-0.2-4,5.8,0.4,4.4c7.3-5.3,15.6-8.6,24.1-12.2
			c5.1,13.1,10.1,26,15.3,39.3c-6,2.1-11.9,4.2-17.8,6.2c-4.2,1.4-8.5,2.6-12.8,3.7c-7.7,2-15.4,4-23.2,5.8c-2.3,0.6-4.8,0.8-7.2,1
			c-0.2,0-0.3,0-0.5,0v4.9c4.4-0.8,8.6-2,12.9-3.3c6-1.7,11.9-3.6,17.9-5.4c1.1-0.3,2.1-0.5,3.2-0.8c5.8-1.6,11.6-3.4,17.4-4.9
			c4-1,8.1-1.6,12.1-2.6c2.9-0.8,4.6-3.2,3.7-5.2c-1.4-3.3-2.9-6.4-4.5-9.6c-3.6-7.3-7.2-14.4-10.7-21.7c-1.3-2.6-2.5-5.8-3.5-8.2
			c0.6-0.5,5.1-2,5.1-2c4.4-1.3,8.8-2.7,13.2-3.9c3.4-0.9,6.8-1.5,9.8-2.2c-0.3,1.6-0.9,3-0.8,4.4c0.2,2.3,0.7,4.6,1.1,6.9
			c0.3,2.2,0.6,4.3,0.9,6.5c0.8,5.4,1.8,10.8,2.3,16.2c0.5,5.1,0.5,10.3,0.8,15.4c0.2,2.1,0.5,4.2,1.1,6.2c0.9,3.1,4.5,4.3,6.9,2.2
			c2.4-2.2,4.6-4.6,6.5-7.2c4.4-6,8.5-12.3,12.6-18.5c3.7-5.5,7.1-11,9-17.4c2.6-9.2-1.7-14.4-9.5-16.9c-6.7-2.1-21.1-0.9-21.3-0.8
			c-5,1.1-10.1,2-15,3.3c-6.4,1.6-12.7,3.6-19.1,5.5C80.1,182.8,76.9,184.1,76,184.2z M142,190.8c-2.1,6.9-5,13.2-9.4,18.8
			c-4.5,5.8-9.3,11.5-14.1,17.1c-1.2,1.3-2.7,2.3-4.7,4c-0.6-3.4-1.2-6-1.4-8.8c-0.9-8.5-1.8-17.1-2.5-25.7
			c-0.4-4.4-0.3-8.8-0.7-13.1c-0.2-2.1-0.9-4.2-1.4-6.4c1.8-0.4,4.2-1.2,6.6-1.3c6.9-0.3,13.7-0.1,20.2,2.1
			C138.9,179,144,184.3,142,190.8z"/>
		<path class="st3" d="M186.2,173.5c-4.9,0.8-10,1-15,1.5c0,0-3.6-0.1-5.4,0.3c-1.6,0.4-3.4,1.1-2.9,3.4c0.5,2.3,2.5,1.7,3.9,1.5
			c3.2-0.4,6.4-1.1,9.6-1.7c5.2-0.9,10.4-1.9,15.6-2.9c2-0.4,4.1-0.7,6.1-1.3c1.3-0.4,2.7-1,2-2.8c-0.8-1.9-2.4-1.8-4-1.3
			C192.8,171.3,189.6,172.9,186.2,173.5z"/>
		<path class="st3" d="M0,0v317h317V0H0z M292.7,200.4c3.1-0.7,6.2-1.7,9.3-2.2c1-0.2,2.5,0.4,3.2,1c0.4,0.3,1.1,3.2-2,3.5
			c-4.9-0.8-9.6-0.2-14.2,0.8V289H28v-42.2c-0.2,0-0.5,0.1-0.7,0.1c-5.3,1-9.2-3.6-8.6-9.4c0.5-5.1,0.6-10.2,0.9-15.3
			c0.2-4.6,0.6-9.2,0.6-13.9c0.1-8.6,0.1-17.3-0.2-25.9c-0.2-4.6-1.1-9.2-1.6-13.7c-0.1-0.8-0.1-1.5-0.1-2.3c0.1-2,0.9-3.5,3.2-3.4
			c2.5,0.1,2.1,2,2.1,3.5c-0.1,4.7-0.3,9.4-0.4,14.1c-0.2,9-0.4,17.9-0.7,26.9c-0.1,4.4-0.4,8.7-0.3,13.1c0.2,6,0.6,11.9,1,17.8
			c0.2,2.7,1.7,3.7,4.8,3.4v-91.2c-1.3,0.9-2.7,1.6-4.1,2.3c-4.9,2.3-9.4-0.3-9.7-5.8c-0.3-5.7-0.4-11.6,0.1-17.3
			c1.4-15.2,3.4-30.3,8.4-44.8C24,81.2,26,77.5,28,73.8V28h261v93.1c3.6-0.7,7.1-1.3,10.7-1.9c1.1-0.2,2.2-0.9,3.3-0.9
			c0.9,0,2.4,0.4,2.6,1.3c0.3,1-0.8,2.2-1.5,2.5c-1.5,0.6-3.2,0.8-4.9,1c-3.4,0.4-6.8,0.8-10.2,1.3v76.8
			C290.2,200.9,291.5,200.7,292.7,200.4z"/>
		<path class="st3" d="M17.6,111c-1.4,8.7-3.1,17.4-2.6,26.3c0.2,3.6,0.8,7.3,1.6,10.8c0.6,2.7,2.6,3.9,5.1,2.7
			c2.1-1.1,4.2-2.1,6.3-3.3V80.2c-0.2,0.3-0.3,0.5-0.5,0.8C21.9,90.2,19.3,100.5,17.6,111z"/>
	</g>
</g>
</svg>
